<?xml version="1.0" standalone="no"?>
<!DOCTYPE svg PUBLIC "-//W3C//DTD SVG 20010904//EN"
 "http://www.w3.org/TR/2001/REC-SVG-20010904/DTD/svg10.dtd">
<svg version="1.0" xmlns="http://www.w3.org/2000/svg"
 width="522.000000pt" height="522.000000pt" viewBox="0 0 522.000000 522.000000"
 preserveAspectRatio="xMidYMid meet">
<metadata>
Created by potrace 1.14, written by Peter Selinger 2001-2017
</metadata>
<g transform="translate(0.000000,522.000000) scale(0.100000,-0.100000)"
fill="#000000" stroke="none">
<path d="M2803 3865 c-138 -30 -264 -118 -299 -211 -20 -52 -15 -134 11 -184
64 -124 230 -200 435 -199 145 0 254 32 345 101 109 82 141 187 91 293 -40 84
-118 145 -236 185 -81 28 -254 35 -347 15z m321 -161 c3 -8 2 -12 -4 -9 -6 3
-10 10 -10 16 0 14 7 11 14 -7z m83 -110 c-3 -3 -12 -4 -19 -1 -8 3 -5 6 6 6
11 1 17 -2 13 -5z m-506 -27 c-10 -9 -11 -8 -5 6 3 10 9 15 12 12 3 -3 0 -11
-7 -18z m-37 -65 c3 -5 -1 -9 -9 -9 -8 0 -12 4 -9 9 3 4 7 8 9 8 2 0 6 -4 9
-8z m566 -2 c0 -5 -8 -10 -17 -10 -15 0 -16 2 -3 10 19 12 20 12 20 0z m-500
-60 c0 -5 -5 -10 -11 -10 -5 0 -7 5 -4 10 3 6 8 10 11 10 2 0 4 -4 4 -10z
m-33 -32 c-3 -8 -6 -5 -6 6 -1 11 2 17 5 13 3 -3 4 -12 1 -19z"/>
<path d="M554 3775 c-51 -68 -47 -157 8 -163 22 -3 32 4 54 38 42 64 59 52 60
-45 0 -44 -2 -111 -5 -149 -6 -59 -10 -71 -34 -88 -68 -49 -10 -88 130 -88
102 0 137 13 141 53 2 15 -1 27 -5 27 -5 0 -19 9 -31 20 -21 19 -22 30 -22
161 0 122 2 140 17 146 9 4 19 1 21 -6 10 -29 55 -71 77 -71 28 0 55 34 55 70
0 29 -33 104 -49 115 -7 4 -98 8 -203 8 l-191 2 -23 -30z"/>
<path d="M1165 3804 c-83 -21 -103 -52 -60 -91 l26 -25 -3 -154 c-3 -147 -4
-154 -26 -170 -29 -20 -26 -54 8 -71 31 -16 146 -17 188 -2 41 14 50 44 22 74
-27 29 -34 120 -10 135 19 12 80 13 99 1 21 -14 9 -106 -18 -134 -28 -31 -27
-53 4 -73 20 -13 43 -16 114 -12 92 4 121 16 121 48 0 10 -10 24 -22 33 -22
14 -23 20 -23 176 0 158 1 163 23 180 16 12 23 25 20 42 -4 34 -63 52 -152 46
-57 -4 -73 -9 -88 -27 -23 -28 -23 -32 2 -60 24 -27 33 -58 28 -91 -3 -22 -8
-24 -58 -24 l-55 0 -3 46 c-2 35 2 49 18 64 24 21 26 57 5 75 -16 13 -126 22
-160 14z"/>
<path d="M1896 3803 c-104 -2 -175 -8 -183 -14 -21 -18 -15 -41 15 -65 l27
-22 0 -160 0 -161 -29 -30 c-47 -49 -32 -61 76 -62 51 0 147 -1 213 -2 l120
-2 19 38 c36 74 31 147 -10 147 -8 0 -25 -18 -39 -40 -29 -46 -45 -56 -105
-65 -58 -8 -79 7 -81 60 -4 79 -2 87 28 83 21 -2 29 -10 35 -36 7 -27 13 -33
31 -30 46 6 61 161 22 214 -19 25 -46 9 -57 -34 -7 -27 -13 -32 -38 -32 -29 0
-30 1 -30 49 0 77 4 81 71 81 53 0 62 -3 88 -31 20 -21 37 -29 53 -27 19 2 23
10 26 45 4 59 -20 104 -56 101 -15 -1 -103 -4 -196 -5z"/>
<path d="M976 3162 c-3 -5 -19 -9 -37 -10 -32 -1 -52 -18 -70 -61 -15 -36 -6
-56 61 -138 14 -17 13 -617 0 -665 -6 -21 -17 -43 -24 -51 -80 -80 -30 -187
87 -187 24 0 49 -6 56 -12 8 -7 11 -8 8 -3 -3 6 22 11 65 13 77 3 98 12 122
53 23 38 20 60 -13 110 -21 31 -32 61 -36 104 -14 136 -7 195 23 195 37 -1 62
-60 91 -221 24 -134 59 -209 111 -238 51 -29 134 -29 189 1 71 38 90 123 37
166 -35 27 -43 49 -56 152 -14 109 -36 160 -93 211 -39 36 -40 43 -15 74 5 6
17 21 28 33 72 88 63 311 -16 390 -8 7 -14 18 -14 23 0 5 -7 9 -15 9 -8 0 -15
3 -15 8 0 4 -15 14 -32 22 -26 12 -70 14 -210 12 -111 -1 -179 2 -183 8 -8 12
-42 13 -49 2z m260 -194 c20 -1 39 -25 44 -53 10 -67 2 -163 -15 -189 -21 -31
-63 -45 -76 -25 -5 8 -9 66 -9 129 0 95 3 120 17 137 10 13 20 17 24 11 3 -5
10 -10 15 -10z"/>
<path d="M2325 3161 c-4 -7 -88 -11 -244 -11 -235 0 -238 0 -259 -23 -35 -37
-29 -84 16 -131 36 -39 37 -43 43 -130 7 -101 3 -510 -6 -569 -9 -66 -6 -59
-45 -106 -12 -14 -23 -34 -26 -46 -6 -26 11 -75 28 -76 7 -1 36 -3 63 -4 28
-2 52 -4 55 -5 3 -1 10 -1 15 0 30 7 95 4 95 -5 0 -5 4 -4 8 2 5 7 18 10 32 7
14 -3 30 -5 35 -5 83 6 123 6 138 -1 10 -5 17 -5 17 1 0 10 25 9 36 -2 4 -4
33 -7 64 -7 56 0 57 0 73 38 38 86 63 247 50 312 -3 15 -16 33 -29 40 -33 18
-54 -3 -85 -82 -13 -33 -38 -75 -56 -93 -30 -30 -37 -32 -111 -34 -77 -2 -79
-1 -92 26 -16 34 -25 165 -16 227 7 44 9 46 41 46 29 0 35 -4 43 -32 16 -52
25 -92 24 -100 -1 -5 8 -8 20 -8 19 0 20 -2 8 -10 -8 -5 -10 -10 -4 -10 11 0
54 37 55 48 0 4 2 16 4 27 6 29 18 155 19 190 1 61 -16 195 -25 195 -5 0 -9 9
-9 20 0 36 -71 22 -77 -15 0 -6 -4 -26 -7 -46 -11 -70 -32 -93 -74 -82 -25 6
-26 12 -23 210 1 49 33 73 98 73 29 0 53 -4 53 -10 0 -5 10 -10 21 -10 25 0
51 -27 69 -70 7 -17 17 -30 22 -30 5 0 7 -4 3 -9 -6 -11 22 -19 47 -13 51 12
57 199 8 287 -14 26 -23 30 -62 33 -26 2 -49 -2 -53 -7z"/>
<path d="M2861 3149 c-18 -11 -40 -26 -47 -34 -8 -7 -24 -22 -36 -32 -25 -19
-65 -80 -87 -128 -20 -44 -26 -203 -10 -251 7 -21 14 -45 15 -53 2 -8 6 -17
11 -20 4 -3 17 -22 28 -41 19 -35 97 -120 109 -120 4 0 16 -8 27 -19 11 -10
40 -29 64 -41 25 -13 42 -27 39 -31 -3 -5 1 -9 9 -9 28 0 36 -59 14 -96 -9
-16 -24 -21 -66 -23 -36 -2 -51 1 -46 8 3 7 -2 11 -14 11 -12 0 -26 9 -33 20
-7 11 -18 20 -25 20 -7 0 -13 9 -13 20 0 11 -4 20 -10 20 -5 0 -10 7 -10 15 0
28 -43 103 -66 116 -19 10 -26 9 -41 -6 -14 -15 -18 -34 -17 -89 1 -151 35
-261 89 -290 11 -6 22 -13 25 -16 3 -3 11 -6 18 -7 6 -2 18 -4 25 -5 6 -2 14
-6 17 -10 3 -4 33 -8 67 -10 33 -2 59 -6 56 -10 -2 -5 3 -8 12 -8 10 0 13 5 9
13 -5 7 0 6 11 -3 10 -8 16 -10 12 -4 -4 7 10 11 40 13 26 1 49 5 53 9 3 4 19
14 35 22 101 50 175 199 175 353 0 71 -36 194 -67 230 -34 41 -42 47 -52 47
-6 0 -11 5 -11 10 0 6 -7 10 -15 10 -8 0 -15 3 -15 8 0 8 -49 32 -67 32 -7 0
-13 5 -13 10 0 6 -12 10 -26 10 -14 0 -23 4 -20 8 3 5 -6 15 -20 23 -33 17
-46 52 -38 95 4 24 12 34 24 34 10 0 21 6 23 13 4 9 8 9 15 -2 8 -11 10 -11
15 0 4 10 6 10 6 2 1 -7 6 -13 12 -13 10 0 36 -25 86 -84 13 -14 20 -26 17
-26 -2 0 6 -11 20 -25 30 -30 59 -32 86 -7 16 15 20 33 22 88 2 92 -33 195
-81 238 -18 17 -24 18 -46 6 -20 -11 -29 -10 -60 4 -19 9 -39 14 -44 11 -5 -3
-12 -1 -16 5 -11 18 -137 10 -174 -11z"/>
<path d="M3730 3147 c-73 -35 -117 -77 -179 -169 -35 -53 -86 -189 -92 -243
-9 -92 -1 -262 16 -330 16 -65 61 -167 88 -203 33 -42 110 -112 123 -112 8 0
12 -4 9 -10 -3 -5 3 -10 14 -10 10 0 21 -5 23 -12 6 -16 184 -16 200 0 7 7 22
12 35 12 13 0 23 4 23 8 0 5 12 15 28 23 45 23 118 107 133 152 16 53 16 141
-1 162 -21 25 -52 17 -90 -22 -45 -48 -72 -63 -112 -63 -55 0 -147 68 -163
121 -4 10 -10 19 -14 19 -6 0 -27 83 -34 137 -2 12 -6 26 -10 29 -11 11 -8
151 4 199 6 24 19 52 29 63 11 11 16 23 13 26 -4 3 21 6 53 6 60 0 71 -5 111
-54 7 -8 28 -47 46 -88 43 -92 66 -118 103 -118 40 1 58 17 78 71 33 88 5 297
-47 345 -26 24 -57 32 -57 15 0 -17 -61 7 -125 48 -43 28 -145 27 -205 -2z"/>
<path d="M4618 3157 c-21 -7 -47 -20 -58 -29 -11 -10 -24 -18 -28 -18 -4 0
-31 -24 -59 -52 -108 -110 -159 -280 -149 -493 6 -119 36 -264 60 -288 7 -7
19 -28 28 -47 18 -38 90 -120 105 -120 5 0 15 -9 23 -20 8 -11 24 -20 35 -20
12 0 25 -4 31 -9 5 -5 25 -11 44 -12 19 -2 38 -8 42 -14 5 -6 8 -4 8 5 0 13 1
13 10 0 6 -10 13 -11 18 -5 4 6 23 12 42 14 19 1 39 7 44 12 6 5 18 9 28 9 10
0 18 4 18 8 0 5 12 15 28 22 69 35 157 161 198 282 33 98 26 317 -13 448 -36
121 -126 253 -199 290 -16 8 -31 17 -34 20 -11 11 -102 30 -143 29 -23 0 -59
-6 -79 -12z m100 -259 c17 -17 29 -34 27 -38 -3 -4 2 -13 10 -20 8 -7 15 -21
15 -31 0 -11 5 -19 12 -19 6 0 9 -3 5 -6 -3 -3 -1 -18 4 -33 34 -87 56 -325
36 -393 -11 -42 -51 -76 -81 -71 -14 3 -26 9 -26 14 0 5 -8 9 -17 9 -9 0 -14
3 -10 6 3 4 -5 28 -19 55 -13 27 -22 49 -19 49 3 0 1 9 -5 20 -40 75 -69 388
-40 440 31 57 65 63 108 18z"/>
<path d="M111 3152 c-13 -2 -26 -12 -28 -23 -3 -10 -9 -19 -14 -19 -5 0 -9
-11 -9 -25 0 -28 20 -75 32 -75 4 0 17 -15 28 -32 19 -31 20 -52 20 -346 0
-269 -2 -318 -17 -350 -9 -20 -15 -40 -15 -44 1 -5 -4 -8 -11 -8 -19 0 -47
-54 -47 -90 0 -23 9 -40 31 -61 31 -29 31 -29 154 -33 11 0 23 -5 27 -11 5 -7
8 -7 8 1 0 6 24 12 58 13 85 2 140 26 151 65 11 42 4 78 -19 94 -63 45 -72 66
-76 187 -4 99 8 135 45 135 32 0 49 -25 56 -83 9 -68 14 -77 43 -77 21 0 32 8
47 37 18 32 20 56 20 212 0 189 -1 193 -28 227 -30 35 -61 13 -83 -61 -19 -58
-20 -60 -53 -58 -18 1 -36 4 -39 8 -8 8 -5 121 5 180 l8 50 78 3 c48 2 77 -1
77 -8 0 -5 5 -10 11 -10 15 0 32 -19 62 -70 26 -45 67 -81 67 -59 0 5 4 8 9 5
4 -3 16 3 26 14 37 41 12 256 -35 304 -9 8 -535 15 -589 8z"/>
<path d="M2383 1891 c-127 -4 -196 -10 -204 -18 -16 -16 -3 -60 21 -68 27 -9
32 -49 28 -219 -3 -142 -3 -145 -30 -173 -61 -63 -37 -71 221 -74 l213 -3 19
25 c23 31 43 112 35 144 -10 39 -51 34 -77 -9 -29 -50 -63 -68 -129 -70 -32 0
-61 2 -65 6 -11 11 -18 94 -11 123 5 21 12 26 33 23 20 -2 29 -11 38 -38 14
-42 37 -49 59 -18 24 33 22 178 -2 208 -22 27 -48 19 -57 -18 -9 -38 -24 -52
-51 -52 -26 0 -28 7 -24 80 2 53 5 57 44 64 50 9 107 -10 133 -43 30 -38 47
-39 69 -6 14 21 15 32 4 72 -14 58 -26 74 -54 71 -11 -1 -107 -4 -213 -7z"/>
<path d="M2918 1886 c-150 -41 -202 -197 -97 -290 29 -26 138 -86 156 -86 6 0
18 -9 27 -19 17 -18 17 -20 -4 -41 -41 -41 -119 -12 -165 60 -18 28 -32 40
-49 40 -39 0 -45 -35 -20 -119 14 -47 20 -55 59 -72 66 -29 180 -36 248 -14
117 37 175 145 133 246 -20 49 -43 66 -137 103 -89 34 -111 54 -90 80 26 31
98 8 141 -45 18 -21 48 -27 68 -13 29 20 29 65 0 115 -23 41 -29 44 -113 54
-27 3 -63 8 -80 10 -16 2 -51 -2 -77 -9z"/>
<path d="M4613 1862 c-33 -33 -47 -77 -41 -127 7 -59 72 -59 108 0 13 22 29
35 42 35 20 0 21 -3 16 -157 -5 -150 -7 -158 -29 -175 -45 -34 -47 -37 -42
-57 8 -30 66 -45 168 -46 110 0 155 15 155 54 0 18 -9 31 -30 43 l-30 17 0
161 c0 146 2 160 18 160 9 -1 29 -18 43 -39 33 -47 60 -56 94 -29 38 30 31
104 -14 158 l-26 31 -200 2 -200 2 -32 -33z"/>
<path d="M1548 1879 c-26 -14 -22 -52 7 -79 25 -23 25 -26 25 -181 0 -153 -1
-158 -25 -187 -54 -64 -15 -97 115 -97 132 0 160 20 115 85 -19 27 -25 49 -25
87 0 29 5 55 11 59 21 13 59 -41 78 -111 27 -97 59 -125 142 -125 75 0 119 21
119 56 0 17 -7 27 -24 33 -19 8 -25 21 -35 71 -12 61 -31 90 -76 116 -19 10
-18 13 12 47 69 79 47 183 -47 221 -32 13 -77 16 -208 16 -95 0 -175 -5 -184
-11z m266 -95 c18 -18 21 -76 6 -105 -10 -18 -59 -28 -61 -11 -4 34 -5 100 -1
115 5 21 35 22 56 1z"/>
<path d="M3462 1875 c-106 -46 -164 -138 -164 -258 0 -135 67 -233 184 -270
68 -21 109 -21 179 -1 123 36 201 135 200 252 -1 134 -69 238 -182 277 -53 19
-174 19 -217 0z m143 -140 c32 -41 65 -141 65 -195 0 -26 -8 -48 -24 -66 -21
-26 -25 -27 -53 -15 -70 29 -133 241 -86 293 27 30 68 23 98 -17z"/>
<path d="M3952 1874 c-29 -20 -28 -30 8 -71 l30 -34 0 -145 c0 -148 -5 -172
-41 -207 -24 -22 -24 -32 0 -56 34 -34 186 -40 241 -11 26 14 26 55 0 73 -15
10 -20 27 -22 70 -1 34 3 62 10 69 19 19 51 -18 68 -81 21 -80 44 -120 75
-137 51 -26 170 -14 191 19 15 23 8 48 -16 56 -24 10 -36 30 -36 62 0 39 -33
100 -61 115 -36 18 -36 29 -3 58 36 30 45 113 19 162 -33 61 -80 74 -273 74
-135 0 -172 -3 -190 -16z m270 -91 c23 -20 24 -85 2 -107 -8 -9 -26 -16 -40
-16 -23 0 -24 3 -24 64 0 61 5 73 34 75 5 1 18 -6 28 -16z"/>
</g>
</svg>
